# xmcd
#
# Track frame offsets:
#	150
#	5800
#	13611
#	29776
#	41115
#	53170
#	59917
#	72246
#	81616
#	87635
#	104187
#	116153
#	132851
#	138910
#	149285
#	159696
#	165442
#	172241
#	177341
#	184402
#	189651
#	198282
#	207239
#	214411
#	222099
#	227967
#	239956
#	243123
#
# Disc length: 3323 seconds
#
# Revision: 0
# Processed by: cddbd v1.5.1PL2 Copyright (c) Steve Scherf et al.
# Submitted via: audiograbber 1.82.02
#
DISCID=c90cf91c
DTITLE=Don Fields and His Pony Boys - Historic WDEV Broadcasts and Last Sessions
DYEAR=1900
DGENRE=Country
TTITLE0=Pony Boys Theme
TTITLE1=Pigtown Fling/White Cockade
TTITLE2=San Antonio Rose
TTITLE3=Golden Slippers/Mrs McCleod's Reel
TTITLE4=Angry
TTITLE5=Devil's Dream/Monkey Musk/Up Jumped The Devil
TTITLE6=Oh, How I Miss You Tonight
TTITLE7=Avalon
TTITLE8=Raggedy Ann
TTITLE9=Honeysuckle Rose/Sundown
TTITLE10=Ramona
TTITLE11=Frankie and Johnnie
TTITLE12=Sears Roebuck Rag
TTITLE13=Honeysuckle Rose
TTITLE14=Sycamore Lane
TTITLE15=Dill Pickle Rag
TTITLE16=Git Along, Cindy
TTITLE17=Hull's Victory
TTITLE18=Ragtime Cowboy Joe
TTITLE19=Cripple Creek
TTITLE20=There's A Light In The Window
TTITLE21=Soldier's Joy/Theme
TTITLE22=Spanish
TTITLE23=In A Little Red Barn
TTITLE24=Tumbling Tumbleweeds
TTITLE25=It's All Over Now
TTITLE26=Fiddle Tune
TTITLE27=12th Street Rag/Theme
EXTD=
EXTT0=
EXTT1=
EXTT2=
EXTT3=
EXTT4=
EXTT5=
EXTT6=
EXTT7=
EXTT8=
EXTT9=
EXTT10=
EXTT11=
EXTT12=
EXTT13=
EXTT14=
EXTT15=
EXTT16=
EXTT17=
EXTT18=
EXTT19=
EXTT20=
EXTT21=
EXTT22=
EXTT23=
EXTT24=
EXTT25=
EXTT26=
EXTT27=
PLAYORDER=
